<svg width="16" height="18" viewBox="0 0 16 18" fill="none" xmlns="http://www.w3.org/2000/svg">
<path fill-rule="evenodd" clip-rule="evenodd" d="M14.6631 5.00038H8.9874L11.2263 2.3127C11.2621 2.31898 11.2929 2.3329 11.3301 2.3329C11.6985 2.3329 11.9967 2.0346 11.9967 1.66584C11.9967 1.29896 11.6985 0.99864 11.3301 0.99864C10.9634 0.99864 10.6634 1.29896 10.6634 1.66584C10.6634 1.7464 10.6835 1.82046 10.7093 1.89158L8.11948 5.00038H7.87555L5.28697 1.89158C5.31213 1.82046 5.33161 1.7464 5.33161 1.66584C5.33161 1.29896 5.03351 0.99864 4.66497 0.99864C4.2977 0.99864 3.99832 1.29896 3.99832 1.66584C3.99832 2.0346 4.2977 2.3329 4.66497 2.3329C4.70204 2.3329 4.73415 2.31898 4.76873 2.3127L7.00822 5.00038H1.33241C0.596597 5.00038 -0.000193 5.59828 -0.000193 6.33384V15.6714C-0.000193 16.4076 0.596597 17.0047 1.33241 17.0047H14.6631C15.399 17.0047 15.9958 16.4076 15.9958 15.6714V6.33384C15.9958 5.59828 15.399 5.00038 14.6631 5.00038ZM11.9967 14.3373C11.9967 15.0735 11.4004 15.6714 10.6634 15.6714H2.66572C1.92988 15.6714 1.33241 15.0735 1.33241 14.3373V7.66794C1.33241 6.93116 1.92988 6.33384 2.66572 6.33384H10.6634C11.4004 6.33384 11.9967 6.93116 11.9967 7.66794V14.3373ZM13.9607 8.37668C13.435 8.37668 13.0086 7.9493 13.0086 7.42374C13.0086 6.89768 13.435 6.4718 13.9607 6.4718C14.4859 6.4718 14.9122 6.89768 14.9122 7.42374C14.9122 7.9493 14.4859 8.37668 13.9607 8.37668Z" fill="white"/>
</svg>
